<?xml version="1.0" encoding="utf-8" standalone="no"?>
<!DOCTYPE svg PUBLIC "-//W3C//DTD SVG 1.1//EN"
  "http://www.w3.org/Graphics/SVG/1.1/DTD/svg11.dtd">
<svg height="720pt" version="1.1" viewBox="0 0 1152 720" width="1152pt" xmlns="http://www.w3.org/2000/svg" xmlns:xlink="http://www.w3.org/1999/xlink">
 <metadata>
  <rdf:RDF xmlns:cc="http://creativecommons.org/ns#" xmlns:dc="http://purl.org/dc/elements/1.1/" xmlns:rdf="http://www.w3.org/1999/02/22-rdf-syntax-ns#">
   <cc:Work>
    <dc:type rdf:resource="http://purl.org/dc/dcmitype/StillImage"/>
    <dc:date>2022-04-27T14:40:33.458887</dc:date>
    <dc:format>image/svg+xml</dc:format>
    <dc:creator>
     <cc:Agent>
      <dc:title>Matplotlib v3.4.3, https://matplotlib.org/</dc:title>
     </cc:Agent>
    </dc:creator>
   </cc:Work>
  </rdf:RDF>
 </metadata>
 <defs>
  <style type="text/css">*{stroke-linecap:butt;stroke-linejoin:round;}</style>
 </defs>
 <g id="figure_1">
  <g id="patch_1">
   <path d="M 0 720 
L 1152 720 
L 1152 0 
L 0 0 
z
" style="fill:#ffffff;"/>
  </g>
  <g id="axes_1">
   <g id="patch_2">
    <path d="M 144 640.8 
L 1036.8 640.8 
L 1036.8 86.4 
L 144 86.4 
z
" style="fill:#ffffff;"/>
   </g>
   <g id="matplotlib.axis_1">
    <g id="xtick_1">
     <g id="line2d_1">
      <path clip-path="url(#p1e2e49072a)" d="M 144 640.8 
L 144 86.4 
" style="fill:none;stroke:#bf00bf;stroke-linecap:square;stroke-width:0.5;"/>
     </g>
     <g id="line2d_2">
      <defs>
       <path d="M 0 0 
L 0 3.5 
" id="m367ab4898f" style="stroke:#000000;stroke-width:0.8;"/>
      </defs>
      <g>
       <use style="stroke:#000000;stroke-width:0.8;" x="144" xlink:href="#m367ab4898f" y="640.8"/>
      </g>
     </g>
     <g id="text_1">
      <!-- 0 -->
      <g transform="translate(140.81875 655.398438)scale(0.1 -0.1)">
       <defs>
        <path d="M 2034 4250 
Q 1547 4250 1301 3770 
Q 1056 3291 1056 2328 
Q 1056 1369 1301 889 
Q 1547 409 2034 409 
Q 2525 409 2770 889 
Q 3016 1369 3016 2328 
Q 3016 3291 2770 3770 
Q 2525 4250 2034 4250 
z
M 2034 4750 
Q 2819 4750 3233 4129 
Q 3647 3509 3647 2328 
Q 3647 1150 3233 529 
Q 2819 -91 2034 -91 
Q 1250 -91 836 529 
Q 422 1150 422 2328 
Q 422 3509 836 4129 
Q 1250 4750 2034 4750 
z
" id="DejaVuSans-30" transform="scale(0.015625)"/>
       </defs>
       <use xlink:href="#DejaVuSans-30"/>
      </g>
     </g>
    </g>
    <g id="xtick_2">
     <g id="line2d_3">
      <path clip-path="url(#p1e2e49072a)" d="M 281.144964 640.8 
L 281.144964 86.4 
" style="fill:none;stroke:#bf00bf;stroke-linecap:square;stroke-width:0.5;"/>
     </g>
     <g id="line2d_4">
      <g>
       <use style="stroke:#000000;stroke-width:0.8;" x="281.144964" xlink:href="#m367ab4898f" y="640.8"/>
      </g>
     </g>
     <g id="text_2">
      <!-- 2 -->
      <g transform="translate(277.963714 655.398438)scale(0.1 -0.1)">
       <defs>
        <path d="M 1228 531 
L 3431 531 
L 3431 0 
L 469 0 
L 469 531 
Q 828 903 1448 1529 
Q 2069 2156 2228 2338 
Q 2531 2678 2651 2914 
Q 2772 3150 2772 3378 
Q 2772 3750 2511 3984 
Q 2250 4219 1831 4219 
Q 1534 4219 1204 4116 
Q 875 4013 500 3803 
L 500 4441 
Q 881 4594 1212 4672 
Q 1544 4750 1819 4750 
Q 2544 4750 2975 4387 
Q 3406 4025 3406 3419 
Q 3406 3131 3298 2873 
Q 3191 2616 2906 2266 
Q 2828 2175 2409 1742 
Q 1991 1309 1228 531 
z
" id="DejaVuSans-32" transform="scale(0.015625)"/>
       </defs>
       <use xlink:href="#DejaVuSans-32"/>
      </g>
     </g>
    </g>
    <g id="xtick_3">
     <g id="line2d_5">
      <path clip-path="url(#p1e2e49072a)" d="M 418.289928 640.8 
L 418.289928 86.4 
" style="fill:none;stroke:#bf00bf;stroke-linecap:square;stroke-width:0.5;"/>
     </g>
     <g id="line2d_6">
      <g>
       <use style="stroke:#000000;stroke-width:0.8;" x="418.289928" xlink:href="#m367ab4898f" y="640.8"/>
      </g>
     </g>
     <g id="text_3">
      <!-- 4 -->
      <g transform="translate(415.108678 655.398438)scale(0.1 -0.1)">
       <defs>
        <path d="M 2419 4116 
L 825 1625 
L 2419 1625 
L 2419 4116 
z
M 2253 4666 
L 3047 4666 
L 3047 1625 
L 3713 1625 
L 3713 1100 
L 3047 1100 
L 3047 0 
L 2419 0 
L 2419 1100 
L 313 1100 
L 313 1709 
L 2253 4666 
z
" id="DejaVuSans-34" transform="scale(0.015625)"/>
       </defs>
       <use xlink:href="#DejaVuSans-34"/>
      </g>
     </g>
    </g>
    <g id="xtick_4">
     <g id="line2d_7">
      <path clip-path="url(#p1e2e49072a)" d="M 555.434891 640.8 
L 555.434891 86.4 
" style="fill:none;stroke:#bf00bf;stroke-linecap:square;stroke-width:0.5;"/>
     </g>
     <g id="line2d_8">
      <g>
       <use style="stroke:#000000;stroke-width:0.8;" x="555.434891" xlink:href="#m367ab4898f" y="640.8"/>
      </g>
     </g>
     <g id="text_4">
      <!-- 6 -->
      <g transform="translate(552.253641 655.398438)scale(0.1 -0.1)">
       <defs>
        <path d="M 2113 2584 
Q 1688 2584 1439 2293 
Q 1191 2003 1191 1497 
Q 1191 994 1439 701 
Q 1688 409 2113 409 
Q 2538 409 2786 701 
Q 3034 994 3034 1497 
Q 3034 2003 2786 2293 
Q 2538 2584 2113 2584 
z
M 3366 4563 
L 3366 3988 
Q 3128 4100 2886 4159 
Q 2644 4219 2406 4219 
Q 1781 4219 1451 3797 
Q 1122 3375 1075 2522 
Q 1259 2794 1537 2939 
Q 1816 3084 2150 3084 
Q 2853 3084 3261 2657 
Q 3669 2231 3669 1497 
Q 3669 778 3244 343 
Q 2819 -91 2113 -91 
Q 1303 -91 875 529 
Q 447 1150 447 2328 
Q 447 3434 972 4092 
Q 1497 4750 2381 4750 
Q 2619 4750 2861 4703 
Q 3103 4656 3366 4563 
z
" id="DejaVuSans-36" transform="scale(0.015625)"/>
       </defs>
       <use xlink:href="#DejaVuSans-36"/>
      </g>
     </g>
    </g>
    <g id="xtick_5">
     <g id="line2d_9">
      <path clip-path="url(#p1e2e49072a)" d="M 692.579855 640.8 
L 692.579855 86.4 
" style="fill:none;stroke:#bf00bf;stroke-linecap:square;stroke-width:0.5;"/>
     </g>
     <g id="line2d_10">
      <g>
       <use style="stroke:#000000;stroke-width:0.8;" x="692.579855" xlink:href="#m367ab4898f" y="640.8"/>
      </g>
     </g>
     <g id="text_5">
      <!-- 8 -->
      <g transform="translate(689.398605 655.398438)scale(0.1 -0.1)">
       <defs>
        <path d="M 2034 2216 
Q 1584 2216 1326 1975 
Q 1069 1734 1069 1313 
Q 1069 891 1326 650 
Q 1584 409 2034 409 
Q 2484 409 2743 651 
Q 3003 894 3003 1313 
Q 3003 1734 2745 1975 
Q 2488 2216 2034 2216 
z
M 1403 2484 
Q 997 2584 770 2862 
Q 544 3141 544 3541 
Q 544 4100 942 4425 
Q 1341 4750 2034 4750 
Q 2731 4750 3128 4425 
Q 3525 4100 3525 3541 
Q 3525 3141 3298 2862 
Q 3072 2584 2669 2484 
Q 3125 2378 3379 2068 
Q 3634 1759 3634 1313 
Q 3634 634 3220 271 
Q 2806 -91 2034 -91 
Q 1263 -91 848 271 
Q 434 634 434 1313 
Q 434 1759 690 2068 
Q 947 2378 1403 2484 
z
M 1172 3481 
Q 1172 3119 1398 2916 
Q 1625 2713 2034 2713 
Q 2441 2713 2670 2916 
Q 2900 3119 2900 3481 
Q 2900 3844 2670 4047 
Q 2441 4250 2034 4250 
Q 1625 4250 1398 4047 
Q 1172 3844 1172 3481 
z
" id="DejaVuSans-38" transform="scale(0.015625)"/>
       </defs>
       <use xlink:href="#DejaVuSans-38"/>
      </g>
     </g>
    </g>
    <g id="xtick_6">
     <g id="line2d_11">
      <path clip-path="url(#p1e2e49072a)" d="M 829.724819 640.8 
L 829.724819 86.4 
" style="fill:none;stroke:#bf00bf;stroke-linecap:square;stroke-width:0.5;"/>
     </g>
     <g id="line2d_12">
      <g>
       <use style="stroke:#000000;stroke-width:0.8;" x="829.724819" xlink:href="#m367ab4898f" y="640.8"/>
      </g>
     </g>
     <g id="text_6">
      <!-- 10 -->
      <g transform="translate(823.362319 655.398438)scale(0.1 -0.1)">
       <defs>
        <path d="M 794 531 
L 1825 531 
L 1825 4091 
L 703 3866 
L 703 4441 
L 1819 4666 
L 2450 4666 
L 2450 531 
L 3481 531 
L 3481 0 
L 794 0 
L 794 531 
z
" id="DejaVuSans-31" transform="scale(0.015625)"/>
       </defs>
       <use xlink:href="#DejaVuSans-31"/>
       <use x="63.623047" xlink:href="#DejaVuSans-30"/>
      </g>
     </g>
    </g>
    <g id="xtick_7">
     <g id="line2d_13">
      <path clip-path="url(#p1e2e49072a)" d="M 966.869783 640.8 
L 966.869783 86.4 
" style="fill:none;stroke:#bf00bf;stroke-linecap:square;stroke-width:0.5;"/>
     </g>
     <g id="line2d_14">
      <g>
       <use style="stroke:#000000;stroke-width:0.8;" x="966.869783" xlink:href="#m367ab4898f" y="640.8"/>
      </g>
     </g>
     <g id="text_7">
      <!-- 12 -->
      <g transform="translate(960.507283 655.398438)scale(0.1 -0.1)">
       <use xlink:href="#DejaVuSans-31"/>
       <use x="63.623047" xlink:href="#DejaVuSans-32"/>
      </g>
     </g>
    </g>
    <g id="xtick_8">
     <g id="line2d_15">
      <path clip-path="url(#p1e2e49072a)" d="M 178.286241 640.8 
L 178.286241 86.4 
" style="fill:none;stroke:#bf00bf;stroke-dasharray:2.96,1.28;stroke-dashoffset:0;stroke-width:0.8;"/>
     </g>
     <g id="line2d_16">
      <defs>
       <path d="M 0 0 
L 0 2 
" id="md843fc67db" style="stroke:#000000;stroke-width:0.6;"/>
      </defs>
      <g>
       <use style="stroke:#000000;stroke-width:0.6;" x="178.286241" xlink:href="#md843fc67db" y="640.8"/>
      </g>
     </g>
    </g>
    <g id="xtick_9">
     <g id="line2d_17">
      <path clip-path="url(#p1e2e49072a)" d="M 212.572482 640.8 
L 212.572482 86.4 
" style="fill:none;stroke:#bf00bf;stroke-dasharray:2.96,1.28;stroke-dashoffset:0;stroke-width:0.8;"/>
     </g>
     <g id="line2d_18">
      <g>
       <use style="stroke:#000000;stroke-width:0.6;" x="212.572482" xlink:href="#md843fc67db" y="640.8"/>
      </g>
     </g>
    </g>
    <g id="xtick_10">
     <g id="line2d_19">
      <path clip-path="url(#p1e2e49072a)" d="M 246.858723 640.8 
L 246.858723 86.4 
" style="fill:none;stroke:#bf00bf;stroke-dasharray:2.96,1.28;stroke-dashoffset:0;stroke-width:0.8;"/>
     </g>
     <g id="line2d_20">
      <g>
       <use style="stroke:#000000;stroke-width:0.6;" x="246.858723" xlink:href="#md843fc67db" y="640.8"/>
      </g>
     </g>
    </g>
    <g id="xtick_11">
     <g id="line2d_21">
      <path clip-path="url(#p1e2e49072a)" d="M 315.431205 640.8 
L 315.431205 86.4 
" style="fill:none;stroke:#bf00bf;stroke-dasharray:2.96,1.28;stroke-dashoffset:0;stroke-width:0.8;"/>
     </g>
     <g id="line2d_22">
      <g>
       <use style="stroke:#000000;stroke-width:0.6;" x="315.431205" xlink:href="#md843fc67db" y="640.8"/>
      </g>
     </g>
    </g>
    <g id="xtick_12">
     <g id="line2d_23">
      <path clip-path="url(#p1e2e49072a)" d="M 349.717446 640.8 
L 349.717446 86.4 
" style="fill:none;stroke:#bf00bf;stroke-dasharray:2.96,1.28;stroke-dashoffset:0;stroke-width:0.8;"/>
     </g>
     <g id="line2d_24">
      <g>
       <use style="stroke:#000000;stroke-width:0.6;" x="349.717446" xlink:href="#md843fc67db" y="640.8"/>
      </g>
     </g>
    </g>
    <g id="xtick_13">
     <g id="line2d_25">
      <path clip-path="url(#p1e2e49072a)" d="M 384.003687 640.8 
L 384.003687 86.4 
" style="fill:none;stroke:#bf00bf;stroke-dasharray:2.96,1.28;stroke-dashoffset:0;stroke-width:0.8;"/>
     </g>
     <g id="line2d_26">
      <g>
       <use style="stroke:#000000;stroke-width:0.6;" x="384.003687" xlink:href="#md843fc67db" y="640.8"/>
      </g>
     </g>
    </g>
    <g id="xtick_14">
     <g id="line2d_27">
      <path clip-path="url(#p1e2e49072a)" d="M 452.576169 640.8 
L 452.576169 86.4 
" style="fill:none;stroke:#bf00bf;stroke-dasharray:2.96,1.28;stroke-dashoffset:0;stroke-width:0.8;"/>
     </g>
     <g id="line2d_28">
      <g>
       <use style="stroke:#000000;stroke-width:0.6;" x="452.576169" xlink:href="#md843fc67db" y="640.8"/>
      </g>
     </g>
    </g>
    <g id="xtick_15">
     <g id="line2d_29">
      <path clip-path="url(#p1e2e49072a)" d="M 486.86241 640.8 
L 486.86241 86.4 
" style="fill:none;stroke:#bf00bf;stroke-dasharray:2.96,1.28;stroke-dashoffset:0;stroke-width:0.8;"/>
     </g>
     <g id="line2d_30">
      <g>
       <use style="stroke:#000000;stroke-width:0.6;" x="486.86241" xlink:href="#md843fc67db" y="640.8"/>
      </g>
     </g>
    </g>
    <g id="xtick_16">
     <g id="line2d_31">
      <path clip-path="url(#p1e2e49072a)" d="M 521.148651 640.8 
L 521.148651 86.4 
" style="fill:none;stroke:#bf00bf;stroke-dasharray:2.96,1.28;stroke-dashoffset:0;stroke-width:0.8;"/>
     </g>
     <g id="line2d_32">
      <g>
       <use style="stroke:#000000;stroke-width:0.6;" x="521.148651" xlink:href="#md843fc67db" y="640.8"/>
      </g>
     </g>
    </g>
    <g id="xtick_17">
     <g id="line2d_33">
      <path clip-path="url(#p1e2e49072a)" d="M 589.721132 640.8 
L 589.721132 86.4 
" style="fill:none;stroke:#bf00bf;stroke-dasharray:2.96,1.28;stroke-dashoffset:0;stroke-width:0.8;"/>
     </g>
     <g id="line2d_34">
      <g>
       <use style="stroke:#000000;stroke-width:0.6;" x="589.721132" xlink:href="#md843fc67db" y="640.8"/>
      </g>
     </g>
    </g>
    <g id="xtick_18">
     <g id="line2d_35">
      <path clip-path="url(#p1e2e49072a)" d="M 624.007373 640.8 
L 624.007373 86.4 
" style="fill:none;stroke:#bf00bf;stroke-dasharray:2.96,1.28;stroke-dashoffset:0;stroke-width:0.8;"/>
     </g>
     <g id="line2d_36">
      <g>
       <use style="stroke:#000000;stroke-width:0.6;" x="624.007373" xlink:href="#md843fc67db" y="640.8"/>
      </g>
     </g>
    </g>
    <g id="xtick_19">
     <g id="line2d_37">
      <path clip-path="url(#p1e2e49072a)" d="M 658.293614 640.8 
L 658.293614 86.4 
" style="fill:none;stroke:#bf00bf;stroke-dasharray:2.96,1.28;stroke-dashoffset:0;stroke-width:0.8;"/>
     </g>
     <g id="line2d_38">
      <g>
       <use style="stroke:#000000;stroke-width:0.6;" x="658.293614" xlink:href="#md843fc67db" y="640.8"/>
      </g>
     </g>
    </g>
    <g id="xtick_20">
     <g id="line2d_39">
      <path clip-path="url(#p1e2e49072a)" d="M 726.866096 640.8 
L 726.866096 86.4 
" style="fill:none;stroke:#bf00bf;stroke-dasharray:2.96,1.28;stroke-dashoffset:0;stroke-width:0.8;"/>
     </g>
     <g id="line2d_40">
      <g>
       <use style="stroke:#000000;stroke-width:0.6;" x="726.866096" xlink:href="#md843fc67db" y="640.8"/>
      </g>
     </g>
    </g>
    <g id="xtick_21">
     <g id="line2d_41">
      <path clip-path="url(#p1e2e49072a)" d="M 761.152337 640.8 
L 761.152337 86.4 
" style="fill:none;stroke:#bf00bf;stroke-dasharray:2.96,1.28;stroke-dashoffset:0;stroke-width:0.8;"/>
     </g>
     <g id="line2d_42">
      <g>
       <use style="stroke:#000000;stroke-width:0.6;" x="761.152337" xlink:href="#md843fc67db" y="640.8"/>
      </g>
     </g>
    </g>
    <g id="xtick_22">
     <g id="line2d_43">
      <path clip-path="url(#p1e2e49072a)" d="M 795.438578 640.8 
L 795.438578 86.4 
" style="fill:none;stroke:#bf00bf;stroke-dasharray:2.96,1.28;stroke-dashoffset:0;stroke-width:0.8;"/>
     </g>
     <g id="line2d_44">
      <g>
       <use style="stroke:#000000;stroke-width:0.6;" x="795.438578" xlink:href="#md843fc67db" y="640.8"/>
      </g>
     </g>
    </g>
    <g id="xtick_23">
     <g id="line2d_45">
      <path clip-path="url(#p1e2e49072a)" d="M 864.01106 640.8 
L 864.01106 86.4 
" style="fill:none;stroke:#bf00bf;stroke-dasharray:2.96,1.28;stroke-dashoffset:0;stroke-width:0.8;"/>
     </g>
     <g id="line2d_46">
      <g>
       <use style="stroke:#000000;stroke-width:0.6;" x="864.01106" xlink:href="#md843fc67db" y="640.8"/>
      </g>
     </g>
    </g>
    <g id="xtick_24">
     <g id="line2d_47">
      <path clip-path="url(#p1e2e49072a)" d="M 898.297301 640.8 
L 898.297301 86.4 
" style="fill:none;stroke:#bf00bf;stroke-dasharray:2.96,1.28;stroke-dashoffset:0;stroke-width:0.8;"/>
     </g>
     <g id="line2d_48">
      <g>
       <use style="stroke:#000000;stroke-width:0.6;" x="898.297301" xlink:href="#md843fc67db" y="640.8"/>
      </g>
     </g>
    </g>
    <g id="xtick_25">
     <g id="line2d_49">
      <path clip-path="url(#p1e2e49072a)" d="M 932.583542 640.8 
L 932.583542 86.4 
" style="fill:none;stroke:#bf00bf;stroke-dasharray:2.96,1.28;stroke-dashoffset:0;stroke-width:0.8;"/>
     </g>
     <g id="line2d_50">
      <g>
       <use style="stroke:#000000;stroke-width:0.6;" x="932.583542" xlink:href="#md843fc67db" y="640.8"/>
      </g>
     </g>
    </g>
    <g id="xtick_26">
     <g id="line2d_51">
      <path clip-path="url(#p1e2e49072a)" d="M 1001.156024 640.8 
L 1001.156024 86.4 
" style="fill:none;stroke:#bf00bf;stroke-dasharray:2.96,1.28;stroke-dashoffset:0;stroke-width:0.8;"/>
     </g>
     <g id="line2d_52">
      <g>
       <use style="stroke:#000000;stroke-width:0.6;" x="1001.156024" xlink:href="#md843fc67db" y="640.8"/>
      </g>
     </g>
    </g>
    <g id="xtick_27">
     <g id="line2d_53">
      <path clip-path="url(#p1e2e49072a)" d="M 1035.442265 640.8 
L 1035.442265 86.4 
" style="fill:none;stroke:#bf00bf;stroke-dasharray:2.96,1.28;stroke-dashoffset:0;stroke-width:0.8;"/>
     </g>
     <g id="line2d_54">
      <g>
       <use style="stroke:#000000;stroke-width:0.6;" x="1035.442265" xlink:href="#md843fc67db" y="640.8"/>
      </g>
     </g>
    </g>
    <g id="text_8">
     <!-- Time, s -->
     <g transform="translate(563.375391 672.875781)scale(0.15 -0.15)">
      <defs>
       <path d="M -19 4666 
L 3928 4666 
L 3928 4134 
L 2272 4134 
L 2272 0 
L 1638 0 
L 1638 4134 
L -19 4134 
L -19 4666 
z
" id="DejaVuSans-54" transform="scale(0.015625)"/>
       <path d="M 603 3500 
L 1178 3500 
L 1178 0 
L 603 0 
L 603 3500 
z
M 603 4863 
L 1178 4863 
L 1178 4134 
L 603 4134 
L 603 4863 
z
" id="DejaVuSans-69" transform="scale(0.015625)"/>
       <path d="M 3328 2828 
Q 3544 3216 3844 3400 
Q 4144 3584 4550 3584 
Q 5097 3584 5394 3201 
Q 5691 2819 5691 2113 
L 5691 0 
L 5113 0 
L 5113 2094 
Q 5113 2597 4934 2840 
Q 4756 3084 4391 3084 
Q 3944 3084 3684 2787 
Q 3425 2491 3425 1978 
L 3425 0 
L 2847 0 
L 2847 2094 
Q 2847 2600 2669 2842 
Q 2491 3084 2119 3084 
Q 1678 3084 1418 2786 
Q 1159 2488 1159 1978 
L 1159 0 
L 581 0 
L 581 3500 
L 1159 3500 
L 1159 2956 
Q 1356 3278 1631 3431 
Q 1906 3584 2284 3584 
Q 2666 3584 2933 3390 
Q 3200 3197 3328 2828 
z
" id="DejaVuSans-6d" transform="scale(0.015625)"/>
       <path d="M 3597 1894 
L 3597 1613 
L 953 1613 
Q 991 1019 1311 708 
Q 1631 397 2203 397 
Q 2534 397 2845 478 
Q 3156 559 3463 722 
L 3463 178 
Q 3153 47 2828 -22 
Q 2503 -91 2169 -91 
Q 1331 -91 842 396 
Q 353 884 353 1716 
Q 353 2575 817 3079 
Q 1281 3584 2069 3584 
Q 2775 3584 3186 3129 
Q 3597 2675 3597 1894 
z
M 3022 2063 
Q 3016 2534 2758 2815 
Q 2500 3097 2075 3097 
Q 1594 3097 1305 2825 
Q 1016 2553 972 2059 
L 3022 2063 
z
" id="DejaVuSans-65" transform="scale(0.015625)"/>
       <path d="M 750 794 
L 1409 794 
L 1409 256 
L 897 -744 
L 494 -744 
L 750 256 
L 750 794 
z
" id="DejaVuSans-2c" transform="scale(0.015625)"/>
       <path id="DejaVuSans-20" transform="scale(0.015625)"/>
       <path d="M 2834 3397 
L 2834 2853 
Q 2591 2978 2328 3040 
Q 2066 3103 1784 3103 
Q 1356 3103 1142 2972 
Q 928 2841 928 2578 
Q 928 2378 1081 2264 
Q 1234 2150 1697 2047 
L 1894 2003 
Q 2506 1872 2764 1633 
Q 3022 1394 3022 966 
Q 3022 478 2636 193 
Q 2250 -91 1575 -91 
Q 1294 -91 989 -36 
Q 684 19 347 128 
L 347 722 
Q 666 556 975 473 
Q 1284 391 1588 391 
Q 1994 391 2212 530 
Q 2431 669 2431 922 
Q 2431 1156 2273 1281 
Q 2116 1406 1581 1522 
L 1381 1569 
Q 847 1681 609 1914 
Q 372 2147 372 2553 
Q 372 3047 722 3315 
Q 1072 3584 1716 3584 
Q 2034 3584 2315 3537 
Q 2597 3491 2834 3397 
z
" id="DejaVuSans-73" transform="scale(0.015625)"/>
      </defs>
      <use xlink:href="#DejaVuSans-54"/>
      <use x="57.958984" xlink:href="#DejaVuSans-69"/>
      <use x="85.742188" xlink:href="#DejaVuSans-6d"/>
      <use x="183.154297" xlink:href="#DejaVuSans-65"/>
      <use x="244.677734" xlink:href="#DejaVuSans-2c"/>
      <use x="276.464844" xlink:href="#DejaVuSans-20"/>
      <use x="308.251953" xlink:href="#DejaVuSans-73"/>
     </g>
    </g>
   </g>
   <g id="matplotlib.axis_2">
    <g id="ytick_1">
     <g id="line2d_55">
      <path clip-path="url(#p1e2e49072a)" d="M 144 640.8 
L 1036.8 640.8 
" style="fill:none;stroke:#bf00bf;stroke-linecap:square;stroke-width:0.5;"/>
     </g>
     <g id="line2d_56">
      <defs>
       <path d="M 0 0 
L -3.5 0 
" id="m5c0f8468ed" style="stroke:#000000;stroke-width:0.8;"/>
      </defs>
      <g>
       <use style="stroke:#000000;stroke-width:0.8;" x="144" xlink:href="#m5c0f8468ed" y="640.8"/>
      </g>
     </g>
     <g id="text_9">
      <!-- 0.0 -->
      <g transform="translate(121.096875 644.599219)scale(0.1 -0.1)">
       <defs>
        <path d="M 684 794 
L 1344 794 
L 1344 0 
L 684 0 
L 684 794 
z
" id="DejaVuSans-2e" transform="scale(0.015625)"/>
       </defs>
       <use xlink:href="#DejaVuSans-30"/>
       <use x="63.623047" xlink:href="#DejaVuSans-2e"/>
       <use x="95.410156" xlink:href="#DejaVuSans-30"/>
      </g>
     </g>
    </g>
    <g id="ytick_2">
     <g id="line2d_57">
      <path clip-path="url(#p1e2e49072a)" d="M 144 556.8 
L 1036.8 556.8 
" style="fill:none;stroke:#bf00bf;stroke-linecap:square;stroke-width:0.5;"/>
     </g>
     <g id="line2d_58">
      <g>
       <use style="stroke:#000000;stroke-width:0.8;" x="144" xlink:href="#m5c0f8468ed" y="556.8"/>
      </g>
     </g>
     <g id="text_10">
      <!-- 0.5 -->
      <g transform="translate(121.096875 560.599219)scale(0.1 -0.1)">
       <defs>
        <path d="M 691 4666 
L 3169 4666 
L 3169 4134 
L 1269 4134 
L 1269 2991 
Q 1406 3038 1543 3061 
Q 1681 3084 1819 3084 
Q 2600 3084 3056 2656 
Q 3513 2228 3513 1497 
Q 3513 744 3044 326 
Q 2575 -91 1722 -91 
Q 1428 -91 1123 -41 
Q 819 9 494 109 
L 494 744 
Q 775 591 1075 516 
Q 1375 441 1709 441 
Q 2250 441 2565 725 
Q 2881 1009 2881 1497 
Q 2881 1984 2565 2268 
Q 2250 2553 1709 2553 
Q 1456 2553 1204 2497 
Q 953 2441 691 2322 
L 691 4666 
z
" id="DejaVuSans-35" transform="scale(0.015625)"/>
       </defs>
       <use xlink:href="#DejaVuSans-30"/>
       <use x="63.623047" xlink:href="#DejaVuSans-2e"/>
       <use x="95.410156" xlink:href="#DejaVuSans-35"/>
      </g>
     </g>
    </g>
    <g id="ytick_3">
     <g id="line2d_59">
      <path clip-path="url(#p1e2e49072a)" d="M 144 472.8 
L 1036.8 472.8 
" style="fill:none;stroke:#bf00bf;stroke-linecap:square;stroke-width:0.5;"/>
     </g>
     <g id="line2d_60">
      <g>
       <use style="stroke:#000000;stroke-width:0.8;" x="144" xlink:href="#m5c0f8468ed" y="472.8"/>
      </g>
     </g>
     <g id="text_11">
      <!-- 1.0 -->
      <g transform="translate(121.096875 476.599219)scale(0.1 -0.1)">
       <use xlink:href="#DejaVuSans-31"/>
       <use x="63.623047" xlink:href="#DejaVuSans-2e"/>
       <use x="95.410156" xlink:href="#DejaVuSans-30"/>
      </g>
     </g>
    </g>
    <g id="ytick_4">
     <g id="line2d_61">
      <path clip-path="url(#p1e2e49072a)" d="M 144 388.8 
L 1036.8 388.8 
" style="fill:none;stroke:#bf00bf;stroke-linecap:square;stroke-width:0.5;"/>
     </g>
     <g id="line2d_62">
      <g>
       <use style="stroke:#000000;stroke-width:0.8;" x="144" xlink:href="#m5c0f8468ed" y="388.8"/>
      </g>
     </g>
     <g id="text_12">
      <!-- 1.5 -->
      <g transform="translate(121.096875 392.599219)scale(0.1 -0.1)">
       <use xlink:href="#DejaVuSans-31"/>
       <use x="63.623047" xlink:href="#DejaVuSans-2e"/>
       <use x="95.410156" xlink:href="#DejaVuSans-35"/>
      </g>
     </g>
    </g>
    <g id="ytick_5">
     <g id="line2d_63">
      <path clip-path="url(#p1e2e49072a)" d="M 144 304.8 
L 1036.8 304.8 
" style="fill:none;stroke:#bf00bf;stroke-linecap:square;stroke-width:0.5;"/>
     </g>
     <g id="line2d_64">
      <g>
       <use style="stroke:#000000;stroke-width:0.8;" x="144" xlink:href="#m5c0f8468ed" y="304.8"/>
      </g>
     </g>
     <g id="text_13">
      <!-- 2.0 -->
      <g transform="translate(121.096875 308.599219)scale(0.1 -0.1)">
       <use xlink:href="#DejaVuSans-32"/>
       <use x="63.623047" xlink:href="#DejaVuSans-2e"/>
       <use x="95.410156" xlink:href="#DejaVuSans-30"/>
      </g>
     </g>
    </g>
    <g id="ytick_6">
     <g id="line2d_65">
      <path clip-path="url(#p1e2e49072a)" d="M 144 220.8 
L 1036.8 220.8 
" style="fill:none;stroke:#bf00bf;stroke-linecap:square;stroke-width:0.5;"/>
     </g>
     <g id="line2d_66">
      <g>
       <use style="stroke:#000000;stroke-width:0.8;" x="144" xlink:href="#m5c0f8468ed" y="220.8"/>
      </g>
     </g>
     <g id="text_14">
      <!-- 2.5 -->
      <g transform="translate(121.096875 224.599219)scale(0.1 -0.1)">
       <use xlink:href="#DejaVuSans-32"/>
       <use x="63.623047" xlink:href="#DejaVuSans-2e"/>
       <use x="95.410156" xlink:href="#DejaVuSans-35"/>
      </g>
     </g>
    </g>
    <g id="ytick_7">
     <g id="line2d_67">
      <path clip-path="url(#p1e2e49072a)" d="M 144 136.8 
L 1036.8 136.8 
" style="fill:none;stroke:#bf00bf;stroke-linecap:square;stroke-width:0.5;"/>
     </g>
     <g id="line2d_68">
      <g>
       <use style="stroke:#000000;stroke-width:0.8;" x="144" xlink:href="#m5c0f8468ed" y="136.8"/>
      </g>
     </g>
     <g id="text_15">
      <!-- 3.0 -->
      <g transform="translate(121.096875 140.599219)scale(0.1 -0.1)">
       <defs>
        <path d="M 2597 2516 
Q 3050 2419 3304 2112 
Q 3559 1806 3559 1356 
Q 3559 666 3084 287 
Q 2609 -91 1734 -91 
Q 1441 -91 1130 -33 
Q 819 25 488 141 
L 488 750 
Q 750 597 1062 519 
Q 1375 441 1716 441 
Q 2309 441 2620 675 
Q 2931 909 2931 1356 
Q 2931 1769 2642 2001 
Q 2353 2234 1838 2234 
L 1294 2234 
L 1294 2753 
L 1863 2753 
Q 2328 2753 2575 2939 
Q 2822 3125 2822 3475 
Q 2822 3834 2567 4026 
Q 2313 4219 1838 4219 
Q 1578 4219 1281 4162 
Q 984 4106 628 3988 
L 628 4550 
Q 988 4650 1302 4700 
Q 1616 4750 1894 4750 
Q 2613 4750 3031 4423 
Q 3450 4097 3450 3541 
Q 3450 3153 3228 2886 
Q 3006 2619 2597 2516 
z
" id="DejaVuSans-33" transform="scale(0.015625)"/>
       </defs>
       <use xlink:href="#DejaVuSans-33"/>
       <use x="63.623047" xlink:href="#DejaVuSans-2e"/>
       <use x="95.410156" xlink:href="#DejaVuSans-30"/>
      </g>
     </g>
    </g>
    <g id="ytick_8">
     <g id="line2d_69">
      <path clip-path="url(#p1e2e49072a)" d="M 144 624 
L 1036.8 624 
" style="fill:none;stroke:#bf00bf;stroke-dasharray:2.96,1.28;stroke-dashoffset:0;stroke-width:0.8;"/>
     </g>
     <g id="line2d_70">
      <defs>
       <path d="M 0 0 
L -2 0 
" id="mf63d5461b7" style="stroke:#000000;stroke-width:0.6;"/>
      </defs>
      <g>
       <use style="stroke:#000000;stroke-width:0.6;" x="144" xlink:href="#mf63d5461b7" y="624"/>
      </g>
     </g>
    </g>
    <g id="ytick_9">
     <g id="line2d_71">
      <path clip-path="url(#p1e2e49072a)" d="M 144 607.2 
L 1036.8 607.2 
" style="fill:none;stroke:#bf00bf;stroke-dasharray:2.96,1.28;stroke-dashoffset:0;stroke-width:0.8;"/>
     </g>
     <g id="line2d_72">
      <g>
       <use style="stroke:#000000;stroke-width:0.6;" x="144" xlink:href="#mf63d5461b7" y="607.2"/>
      </g>
     </g>
    </g>
    <g id="ytick_10">
     <g id="line2d_73">
      <path clip-path="url(#p1e2e49072a)" d="M 144 590.4 
L 1036.8 590.4 
" style="fill:none;stroke:#bf00bf;stroke-dasharray:2.96,1.28;stroke-dashoffset:0;stroke-width:0.8;"/>
     </g>
     <g id="line2d_74">
      <g>
       <use style="stroke:#000000;stroke-width:0.6;" x="144" xlink:href="#mf63d5461b7" y="590.4"/>
      </g>
     </g>
    </g>
    <g id="ytick_11">
     <g id="line2d_75">
      <path clip-path="url(#p1e2e49072a)" d="M 144 573.6 
L 1036.8 573.6 
" style="fill:none;stroke:#bf00bf;stroke-dasharray:2.96,1.28;stroke-dashoffset:0;stroke-width:0.8;"/>
     </g>
     <g id="line2d_76">
      <g>
       <use style="stroke:#000000;stroke-width:0.6;" x="144" xlink:href="#mf63d5461b7" y="573.6"/>
      </g>
     </g>
    </g>
    <g id="ytick_12">
     <g id="line2d_77">
      <path clip-path="url(#p1e2e49072a)" d="M 144 540 
L 1036.8 540 
" style="fill:none;stroke:#bf00bf;stroke-dasharray:2.96,1.28;stroke-dashoffset:0;stroke-width:0.8;"/>
     </g>
     <g id="line2d_78">
      <g>
       <use style="stroke:#000000;stroke-width:0.6;" x="144" xlink:href="#mf63d5461b7" y="540"/>
      </g>
     </g>
    </g>
    <g id="ytick_13">
     <g id="line2d_79">
      <path clip-path="url(#p1e2e49072a)" d="M 144 523.2 
L 1036.8 523.2 
" style="fill:none;stroke:#bf00bf;stroke-dasharray:2.96,1.28;stroke-dashoffset:0;stroke-width:0.8;"/>
     </g>
     <g id="line2d_80">
      <g>
       <use style="stroke:#000000;stroke-width:0.6;" x="144" xlink:href="#mf63d5461b7" y="523.2"/>
      </g>
     </g>
    </g>
    <g id="ytick_14">
     <g id="line2d_81">
      <path clip-path="url(#p1e2e49072a)" d="M 144 506.4 
L 1036.8 506.4 
" style="fill:none;stroke:#bf00bf;stroke-dasharray:2.96,1.28;stroke-dashoffset:0;stroke-width:0.8;"/>
     </g>
     <g id="line2d_82">
      <g>
       <use style="stroke:#000000;stroke-width:0.6;" x="144" xlink:href="#mf63d5461b7" y="506.4"/>
      </g>
     </g>
    </g>
    <g id="ytick_15">
     <g id="line2d_83">
      <path clip-path="url(#p1e2e49072a)" d="M 144 489.6 
L 1036.8 489.6 
" style="fill:none;stroke:#bf00bf;stroke-dasharray:2.96,1.28;stroke-dashoffset:0;stroke-width:0.8;"/>
     </g>
     <g id="line2d_84">
      <g>
       <use style="stroke:#000000;stroke-width:0.6;" x="144" xlink:href="#mf63d5461b7" y="489.6"/>
      </g>
     </g>
    </g>
    <g id="ytick_16">
     <g id="line2d_85">
      <path clip-path="url(#p1e2e49072a)" d="M 144 456 
L 1036.8 456 
" style="fill:none;stroke:#bf00bf;stroke-dasharray:2.96,1.28;stroke-dashoffset:0;stroke-width:0.8;"/>
     </g>
     <g id="line2d_86">
      <g>
       <use style="stroke:#000000;stroke-width:0.6;" x="144" xlink:href="#mf63d5461b7" y="456"/>
      </g>
     </g>
    </g>
    <g id="ytick_17">
     <g id="line2d_87">
      <path clip-path="url(#p1e2e49072a)" d="M 144 439.2 
L 1036.8 439.2 
" style="fill:none;stroke:#bf00bf;stroke-dasharray:2.96,1.28;stroke-dashoffset:0;stroke-width:0.8;"/>
     </g>
     <g id="line2d_88">
      <g>
       <use style="stroke:#000000;stroke-width:0.6;" x="144" xlink:href="#mf63d5461b7" y="439.2"/>
      </g>
     </g>
    </g>
    <g id="ytick_18">
     <g id="line2d_89">
      <path clip-path="url(#p1e2e49072a)" d="M 144 422.4 
L 1036.8 422.4 
" style="fill:none;stroke:#bf00bf;stroke-dasharray:2.96,1.28;stroke-dashoffset:0;stroke-width:0.8;"/>
     </g>
     <g id="line2d_90">
      <g>
       <use style="stroke:#000000;stroke-width:0.6;" x="144" xlink:href="#mf63d5461b7" y="422.4"/>
      </g>
     </g>
    </g>
    <g id="ytick_19">
     <g id="line2d_91">
      <path clip-path="url(#p1e2e49072a)" d="M 144 405.6 
L 1036.8 405.6 
" style="fill:none;stroke:#bf00bf;stroke-dasharray:2.96,1.28;stroke-dashoffset:0;stroke-width:0.8;"/>
     </g>
     <g id="line2d_92">
      <g>
       <use style="stroke:#000000;stroke-width:0.6;" x="144" xlink:href="#mf63d5461b7" y="405.6"/>
      </g>
     </g>
    </g>
    <g id="ytick_20">
     <g id="line2d_93">
      <path clip-path="url(#p1e2e49072a)" d="M 144 372 
L 1036.8 372 
" style="fill:none;stroke:#bf00bf;stroke-dasharray:2.96,1.28;stroke-dashoffset:0;stroke-width:0.8;"/>
     </g>
     <g id="line2d_94">
      <g>
       <use style="stroke:#000000;stroke-width:0.6;" x="144" xlink:href="#mf63d5461b7" y="372"/>
      </g>
     </g>
    </g>
    <g id="ytick_21">
     <g id="line2d_95">
      <path clip-path="url(#p1e2e49072a)" d="M 144 355.2 
L 1036.8 355.2 
" style="fill:none;stroke:#bf00bf;stroke-dasharray:2.96,1.28;stroke-dashoffset:0;stroke-width:0.8;"/>
     </g>
     <g id="line2d_96">
      <g>
       <use style="stroke:#000000;stroke-width:0.6;" x="144" xlink:href="#mf63d5461b7" y="355.2"/>
      </g>
     </g>
    </g>
    <g id="ytick_22">
     <g id="line2d_97">
      <path clip-path="url(#p1e2e49072a)" d="M 144 338.4 
L 1036.8 338.4 
" style="fill:none;stroke:#bf00bf;stroke-dasharray:2.96,1.28;stroke-dashoffset:0;stroke-width:0.8;"/>
     </g>
     <g id="line2d_98">
      <g>
       <use style="stroke:#000000;stroke-width:0.6;" x="144" xlink:href="#mf63d5461b7" y="338.4"/>
      </g>
     </g>
    </g>
    <g id="ytick_23">
     <g id="line2d_99">
      <path clip-path="url(#p1e2e49072a)" d="M 144 321.6 
L 1036.8 321.6 
" style="fill:none;stroke:#bf00bf;stroke-dasharray:2.96,1.28;stroke-dashoffset:0;stroke-width:0.8;"/>
     </g>
     <g id="line2d_100">
      <g>
       <use style="stroke:#000000;stroke-width:0.6;" x="144" xlink:href="#mf63d5461b7" y="321.6"/>
      </g>
     </g>
    </g>
    <g id="ytick_24">
     <g id="line2d_101">
      <path clip-path="url(#p1e2e49072a)" d="M 144 288 
L 1036.8 288 
" style="fill:none;stroke:#bf00bf;stroke-dasharray:2.96,1.28;stroke-dashoffset:0;stroke-width:0.8;"/>
     </g>
     <g id="line2d_102">
      <g>
       <use style="stroke:#000000;stroke-width:0.6;" x="144" xlink:href="#mf63d5461b7" y="288"/>
      </g>
     </g>
    </g>
    <g id="ytick_25">
     <g id="line2d_103">
      <path clip-path="url(#p1e2e49072a)" d="M 144 271.2 
L 1036.8 271.2 
" style="fill:none;stroke:#bf00bf;stroke-dasharray:2.96,1.28;stroke-dashoffset:0;stroke-width:0.8;"/>
     </g>
     <g id="line2d_104">
      <g>
       <use style="stroke:#000000;stroke-width:0.6;" x="144" xlink:href="#mf63d5461b7" y="271.2"/>
      </g>
     </g>
    </g>
    <g id="ytick_26">
     <g id="line2d_105">
      <path clip-path="url(#p1e2e49072a)" d="M 144 254.4 
L 1036.8 254.4 
" style="fill:none;stroke:#bf00bf;stroke-dasharray:2.96,1.28;stroke-dashoffset:0;stroke-width:0.8;"/>
     </g>
     <g id="line2d_106">
      <g>
       <use style="stroke:#000000;stroke-width:0.6;" x="144" xlink:href="#mf63d5461b7" y="254.4"/>
      </g>
     </g>
    </g>
    <g id="ytick_27">
     <g id="line2d_107">
      <path clip-path="url(#p1e2e49072a)" d="M 144 237.6 
L 1036.8 237.6 
" style="fill:none;stroke:#bf00bf;stroke-dasharray:2.96,1.28;stroke-dashoffset:0;stroke-width:0.8;"/>
     </g>
     <g id="line2d_108">
      <g>
       <use style="stroke:#000000;stroke-width:0.6;" x="144" xlink:href="#mf63d5461b7" y="237.6"/>
      </g>
     </g>
    </g>
    <g id="ytick_28">
     <g id="line2d_109">
      <path clip-path="url(#p1e2e49072a)" d="M 144 204 
L 1036.8 204 
" style="fill:none;stroke:#bf00bf;stroke-dasharray:2.96,1.28;stroke-dashoffset:0;stroke-width:0.8;"/>
     </g>
     <g id="line2d_110">
      <g>
       <use style="stroke:#000000;stroke-width:0.6;" x="144" xlink:href="#mf63d5461b7" y="204"/>
      </g>
     </g>
    </g>
    <g id="ytick_29">
     <g id="line2d_111">
      <path clip-path="url(#p1e2e49072a)" d="M 144 187.2 
L 1036.8 187.2 
" style="fill:none;stroke:#bf00bf;stroke-dasharray:2.96,1.28;stroke-dashoffset:0;stroke-width:0.8;"/>
     </g>
     <g id="line2d_112">
      <g>
       <use style="stroke:#000000;stroke-width:0.6;" x="144" xlink:href="#mf63d5461b7" y="187.2"/>
      </g>
     </g>
    </g>
    <g id="ytick_30">
     <g id="line2d_113">
      <path clip-path="url(#p1e2e49072a)" d="M 144 170.4 
L 1036.8 170.4 
" style="fill:none;stroke:#bf00bf;stroke-dasharray:2.96,1.28;stroke-dashoffset:0;stroke-width:0.8;"/>
     </g>
     <g id="line2d_114">
      <g>
       <use style="stroke:#000000;stroke-width:0.6;" x="144" xlink:href="#mf63d5461b7" y="170.4"/>
      </g>
     </g>
    </g>
    <g id="ytick_31">
     <g id="line2d_115">
      <path clip-path="url(#p1e2e49072a)" d="M 144 153.6 
L 1036.8 153.6 
" style="fill:none;stroke:#bf00bf;stroke-dasharray:2.96,1.28;stroke-dashoffset:0;stroke-width:0.8;"/>
     </g>
     <g id="line2d_116">
      <g>
       <use style="stroke:#000000;stroke-width:0.6;" x="144" xlink:href="#mf63d5461b7" y="153.6"/>
      </g>
     </g>
    </g>
    <g id="ytick_32">
     <g id="line2d_117">
      <path clip-path="url(#p1e2e49072a)" d="M 144 120 
L 1036.8 120 
" style="fill:none;stroke:#bf00bf;stroke-dasharray:2.96,1.28;stroke-dashoffset:0;stroke-width:0.8;"/>
     </g>
     <g id="line2d_118">
      <g>
       <use style="stroke:#000000;stroke-width:0.6;" x="144" xlink:href="#mf63d5461b7" y="120"/>
      </g>
     </g>
    </g>
    <g id="ytick_33">
     <g id="line2d_119">
      <path clip-path="url(#p1e2e49072a)" d="M 144 103.2 
L 1036.8 103.2 
" style="fill:none;stroke:#bf00bf;stroke-dasharray:2.96,1.28;stroke-dashoffset:0;stroke-width:0.8;"/>
     </g>
     <g id="line2d_120">
      <g>
       <use style="stroke:#000000;stroke-width:0.6;" x="144" xlink:href="#mf63d5461b7" y="103.2"/>
      </g>
     </g>
    </g>
    <g id="text_16">
     <!-- Voltage, V -->
     <g transform="translate(113.977344 401.632031)rotate(-90)scale(0.15 -0.15)">
      <defs>
       <path d="M 1831 0 
L 50 4666 
L 709 4666 
L 2188 738 
L 3669 4666 
L 4325 4666 
L 2547 0 
L 1831 0 
z
" id="DejaVuSans-56" transform="scale(0.015625)"/>
       <path d="M 1959 3097 
Q 1497 3097 1228 2736 
Q 959 2375 959 1747 
Q 959 1119 1226 758 
Q 1494 397 1959 397 
Q 2419 397 2687 759 
Q 2956 1122 2956 1747 
Q 2956 2369 2687 2733 
Q 2419 3097 1959 3097 
z
M 1959 3584 
Q 2709 3584 3137 3096 
Q 3566 2609 3566 1747 
Q 3566 888 3137 398 
Q 2709 -91 1959 -91 
Q 1206 -91 779 398 
Q 353 888 353 1747 
Q 353 2609 779 3096 
Q 1206 3584 1959 3584 
z
" id="DejaVuSans-6f" transform="scale(0.015625)"/>
       <path d="M 603 4863 
L 1178 4863 
L 1178 0 
L 603 0 
L 603 4863 
z
" id="DejaVuSans-6c" transform="scale(0.015625)"/>
       <path d="M 1172 4494 
L 1172 3500 
L 2356 3500 
L 2356 3053 
L 1172 3053 
L 1172 1153 
Q 1172 725 1289 603 
Q 1406 481 1766 481 
L 2356 481 
L 2356 0 
L 1766 0 
Q 1100 0 847 248 
Q 594 497 594 1153 
L 594 3053 
L 172 3053 
L 172 3500 
L 594 3500 
L 594 4494 
L 1172 4494 
z
" id="DejaVuSans-74" transform="scale(0.015625)"/>
       <path d="M 2194 1759 
Q 1497 1759 1228 1600 
Q 959 1441 959 1056 
Q 959 750 1161 570 
Q 1363 391 1709 391 
Q 2188 391 2477 730 
Q 2766 1069 2766 1631 
L 2766 1759 
L 2194 1759 
z
M 3341 1997 
L 3341 0 
L 2766 0 
L 2766 531 
Q 2569 213 2275 61 
Q 1981 -91 1556 -91 
Q 1019 -91 701 211 
Q 384 513 384 1019 
Q 384 1609 779 1909 
Q 1175 2209 1959 2209 
L 2766 2209 
L 2766 2266 
Q 2766 2663 2505 2880 
Q 2244 3097 1772 3097 
Q 1472 3097 1187 3025 
Q 903 2953 641 2809 
L 641 3341 
Q 956 3463 1253 3523 
Q 1550 3584 1831 3584 
Q 2591 3584 2966 3190 
Q 3341 2797 3341 1997 
z
" id="DejaVuSans-61" transform="scale(0.015625)"/>
       <path d="M 2906 1791 
Q 2906 2416 2648 2759 
Q 2391 3103 1925 3103 
Q 1463 3103 1205 2759 
Q 947 2416 947 1791 
Q 947 1169 1205 825 
Q 1463 481 1925 481 
Q 2391 481 2648 825 
Q 2906 1169 2906 1791 
z
M 3481 434 
Q 3481 -459 3084 -895 
Q 2688 -1331 1869 -1331 
Q 1566 -1331 1297 -1286 
Q 1028 -1241 775 -1147 
L 775 -588 
Q 1028 -725 1275 -790 
Q 1522 -856 1778 -856 
Q 2344 -856 2625 -561 
Q 2906 -266 2906 331 
L 2906 616 
Q 2728 306 2450 153 
Q 2172 0 1784 0 
Q 1141 0 747 490 
Q 353 981 353 1791 
Q 353 2603 747 3093 
Q 1141 3584 1784 3584 
Q 2172 3584 2450 3431 
Q 2728 3278 2906 2969 
L 2906 3500 
L 3481 3500 
L 3481 434 
z
" id="DejaVuSans-67" transform="scale(0.015625)"/>
      </defs>
      <use xlink:href="#DejaVuSans-56"/>
      <use x="60.658203" xlink:href="#DejaVuSans-6f"/>
      <use x="121.839844" xlink:href="#DejaVuSans-6c"/>
      <use x="149.623047" xlink:href="#DejaVuSans-74"/>
      <use x="188.832031" xlink:href="#DejaVuSans-61"/>
      <use x="250.111328" xlink:href="#DejaVuSans-67"/>
      <use x="313.587891" xlink:href="#DejaVuSans-65"/>
      <use x="375.111328" xlink:href="#DejaVuSans-2c"/>
      <use x="406.898438" xlink:href="#DejaVuSans-20"/>
      <use x="438.685547" xlink:href="#DejaVuSans-56"/>
     </g>
    </g>
   </g>
   <g id="line2d_121">
    <path clip-path="url(#p1e2e49072a)" d="M 144 638.634375 
L 144.918871 629.971875 
L 147.675485 616.978125 
L 148.594356 608.315625 
L 150.432099 599.653125 
L 151.35097 590.990625 
L 152.269841 590.990625 
L 153.188713 582.328125 
L 154.107584 582.328125 
L 155.026455 573.665625 
L 155.945326 573.665625 
L 156.864198 560.671875 
L 168.809524 504.365625 
L 169.728395 504.365625 
L 170.647266 495.703125 
L 174.322752 478.378125 
L 175.241623 478.378125 
L 176.160494 469.715625 
L 177.079365 469.715625 
L 184.430335 435.065625 
L 185.349207 435.065625 
L 189.024692 417.740625 
L 189.943563 417.740625 
L 193.619048 400.415625 
L 194.537919 400.415625 
L 196.375662 391.753125 
L 197.294533 391.753125 
L 199.132275 383.090625 
L 200.051147 383.090625 
L 201.888889 374.428125 
L 202.80776 374.428125 
L 204.645503 365.765625 
L 206.483246 365.765625 
L 207.402117 357.103125 
L 208.320988 357.103125 
L 209.239859 352.771875 
L 210.158731 352.771875 
L 211.996473 344.109375 
L 212.915344 344.109375 
L 213.834216 339.778125 
L 214.753087 339.778125 
L 216.590829 331.115625 
L 218.428572 331.115625 
L 220.266314 322.453125 
L 222.104057 322.453125 
L 223.941799 313.790625 
L 224.860671 313.790625 
L 225.779542 309.459375 
L 226.698413 309.459375 
L 227.617284 305.128125 
L 228.536156 305.128125 
L 229.455027 300.796875 
L 230.373898 300.796875 
L 231.292769 296.465625 
L 234.049383 296.465625 
L 234.968255 287.803125 
L 236.805997 287.803125 
L 237.724868 283.471875 
L 238.64374 283.471875 
L 239.562611 279.140625 
L 241.400353 279.140625 
L 242.319225 274.809375 
L 243.238096 274.809375 
L 244.156967 270.478125 
L 245.075838 270.478125 
L 245.99471 266.146875 
L 248.751323 266.146875 
L 250.589066 257.484375 
L 252.426808 257.484375 
L 253.34568 253.153125 
L 255.183422 253.153125 
L 256.102293 248.821875 
L 257.021165 248.821875 
L 257.940036 244.490625 
L 260.69665 244.490625 
L 261.615521 240.159375 
L 262.534392 240.159375 
L 263.453263 235.828125 
L 265.291006 235.828125 
L 266.209877 231.496875 
L 268.966491 231.496875 
L 270.804234 222.834375 
L 276.317461 222.834375 
L 278.155204 214.171875 
L 281.830689 214.171875 
L 282.74956 209.840625 
L 285.506174 209.840625 
L 286.425045 205.509375 
L 288.262787 205.509375 
L 289.181659 201.178125 
L 291.019401 201.178125 
L 291.938272 196.846875 
L 295.613758 196.846875 
L 296.532629 192.515625 
L 300.208114 192.515625 
L 301.126985 188.184375 
L 304.80247 188.184375 
L 305.721341 183.853125 
L 309.396826 183.853125 
L 310.315698 179.521875 
L 312.15344 179.521875 
L 313.072311 175.190625 
L 313.991183 179.521875 
L 314.910054 175.190625 
L 317.666668 175.190625 
L 318.585539 170.859375 
L 325.017638 170.859375 
L 325.936509 166.528125 
L 330.530865 166.528125 
L 331.449737 162.196875 
L 336.044093 162.196875 
L 336.962964 157.865625 
L 340.638449 157.865625 
L 341.55732 153.534375 
L 351.664904 153.534375 
L 352.583775 149.203125 
L 359.934746 149.203125 
L 360.853617 144.871875 
L 361.772488 149.203125 
L 362.691359 144.871875 
L 367.285716 144.871875 
L 368.204587 140.540625 
L 369.123458 144.871875 
L 370.042329 140.540625 
L 378.312171 140.540625 
L 379.231042 136.209375 
L 387.500883 136.209375 
L 388.419755 131.878125 
L 396.689596 131.878125 
L 397.608467 127.546875 
L 398.527338 131.878125 
L 399.44621 131.878125 
L 400.365081 127.546875 
L 408.634922 127.546875 
L 409.553793 123.215625 
L 410.472665 127.546875 
L 411.391536 127.546875 
L 412.310407 123.215625 
L 413.229278 127.546875 
L 414.14815 127.546875 
L 415.067021 123.215625 
L 422.417991 123.215625 
L 423.336862 118.884375 
L 424.255734 123.215625 
L 425.174605 123.215625 
L 426.093476 118.884375 
L 427.012347 118.884375 
L 427.931219 123.215625 
L 430.687832 123.215625 
L 431.606704 118.884375 
L 449.065258 118.884375 
L 449.984129 114.553125 
L 450.903 118.884375 
L 451.821871 114.553125 
L 472.037039 114.553125 
L 472.95591 110.221875 
L 473.874781 110.221875 
L 474.793653 114.553125 
L 475.712524 114.553125 
L 476.631395 110.221875 
L 477.550267 110.221875 
L 478.469138 114.553125 
L 479.388009 110.221875 
L 495.00882 110.221875 
L 495.927692 105.890625 
L 496.846563 114.553125 
L 497.765434 118.884375 
L 498.684305 118.884375 
L 499.603177 127.546875 
L 501.440919 136.209375 
L 502.35979 144.871875 
L 503.278662 144.871875 
L 504.197533 153.534375 
L 505.116404 153.534375 
L 506.035276 162.196875 
L 507.873018 170.859375 
L 508.791889 170.859375 
L 509.710761 179.521875 
L 510.629632 179.521875 
L 519.818344 222.834375 
L 520.737216 222.834375 
L 525.331572 244.490625 
L 526.250443 244.490625 
L 527.169314 253.153125 
L 528.088186 253.153125 
L 529.007057 257.484375 
L 529.925928 257.484375 
L 534.520284 279.140625 
L 535.439156 279.140625 
L 539.114641 296.465625 
L 540.033512 296.465625 
L 541.871255 305.128125 
L 542.790126 305.128125 
L 543.708997 309.459375 
L 544.627868 309.459375 
L 547.384482 322.453125 
L 548.303353 322.453125 
L 549.222225 326.784375 
L 550.141096 326.784375 
L 551.978838 335.446875 
L 552.89771 335.446875 
L 554.735452 344.109375 
L 555.654323 344.109375 
L 556.573195 348.440625 
L 557.492066 348.440625 
L 558.410937 352.771875 
L 559.329808 352.771875 
L 560.24868 357.103125 
L 561.167551 357.103125 
L 562.086422 361.434375 
L 563.005293 361.434375 
L 563.924165 365.765625 
L 564.843036 365.765625 
L 565.761907 370.096875 
L 566.680779 370.096875 
L 568.518521 378.759375 
L 570.356264 378.759375 
L 571.275135 383.090625 
L 572.194006 383.090625 
L 573.112877 387.421875 
L 574.031749 387.421875 
L 575.869491 396.084375 
L 577.707234 396.084375 
L 578.626105 400.415625 
L 579.544976 400.415625 
L 580.463847 404.746875 
L 581.382719 404.746875 
L 582.30159 409.078125 
L 583.220461 409.078125 
L 584.139332 413.409375 
L 585.977075 413.409375 
L 586.895946 417.740625 
L 587.814817 417.740625 
L 588.733689 422.071875 
L 589.65256 422.071875 
L 590.571431 426.403125 
L 591.490302 426.403125 
L 592.409174 430.734375 
L 595.165787 430.734375 
L 597.00353 439.396875 
L 598.841273 439.396875 
L 599.760144 443.728125 
L 600.679015 443.728125 
L 601.597886 448.059375 
L 604.3545 448.059375 
L 605.273371 452.390625 
L 606.192243 452.390625 
L 607.111114 456.721875 
L 608.948856 456.721875 
L 609.867728 461.053125 
L 610.786599 461.053125 
L 611.70547 465.384375 
L 613.543213 465.384375 
L 614.462084 469.715625 
L 617.218698 469.715625 
L 618.137569 474.046875 
L 619.975311 474.046875 
L 620.894183 478.378125 
L 622.731925 478.378125 
L 623.650796 482.709375 
L 626.40741 482.709375 
L 627.326282 487.040625 
L 628.245153 487.040625 
L 629.164024 491.371875 
L 631.920638 491.371875 
L 632.839509 495.703125 
L 634.677252 495.703125 
L 635.596123 500.034375 
L 636.514994 500.034375 
L 637.433865 504.365625 
L 642.947093 504.365625 
L 643.865964 508.696875 
L 645.703707 508.696875 
L 646.622578 513.028125 
L 648.46032 513.028125 
L 649.379192 517.359375 
L 653.054677 517.359375 
L 653.973548 521.690625 
L 656.730162 521.690625 
L 657.649033 526.021875 
L 659.486776 526.021875 
L 660.405647 530.353125 
L 664.081132 530.353125 
L 665.000003 534.684375 
L 668.675488 534.684375 
L 669.594359 539.015625 
L 670.513231 534.684375 
L 671.432102 539.015625 
L 673.269844 539.015625 
L 674.188716 543.346875 
L 677.864201 543.346875 
L 678.783072 547.678125 
L 682.458557 547.678125 
L 683.377428 552.009375 
L 687.052913 552.009375 
L 687.971785 556.340625 
L 693.485012 556.340625 
L 694.403883 560.671875 
L 698.079368 560.671875 
L 698.99824 565.003125 
L 702.673725 565.003125 
L 703.592596 569.334375 
L 704.511467 565.003125 
L 705.430338 569.334375 
L 708.186952 569.334375 
L 709.105823 573.665625 
L 718.294536 573.665625 
L 719.213407 577.996875 
L 725.645506 577.996875 
L 726.564377 582.328125 
L 731.158734 582.328125 
L 732.077605 586.659375 
L 740.347446 586.659375 
L 741.266317 590.990625 
L 750.45503 590.990625 
L 751.373901 595.321875 
L 758.724871 595.321875 
L 759.643743 599.653125 
L 760.562614 595.321875 
L 761.481485 599.653125 
L 771.589069 599.653125 
L 772.50794 603.984375 
L 780.777782 603.984375 
L 781.696653 608.315625 
L 796.398593 608.315625 
L 797.317464 612.646875 
L 812.019404 612.646875 
L 812.938276 616.978125 
L 813.857147 612.646875 
L 814.776018 616.978125 
L 829.477958 616.978125 
L 830.396829 621.309375 
L 849.693126 621.309375 
L 850.611997 625.640625 
L 851.530868 621.309375 
L 854.287482 621.309375 
L 855.206353 625.640625 
L 856.125225 625.640625 
L 857.044096 621.309375 
L 857.962967 625.640625 
L 876.340392 625.640625 
L 877.259264 629.971875 
L 878.178135 625.640625 
L 885.529105 625.640625 
L 886.447976 629.971875 
L 888.285719 629.971875 
L 889.20459 625.640625 
L 890.123461 629.971875 
L 914.932985 629.971875 
L 915.851856 634.303125 
L 916.770728 629.971875 
L 918.60847 629.971875 
L 919.527341 634.303125 
L 967.308647 634.303125 
L 968.227518 638.634375 
L 968.227518 638.634375 
" style="fill:none;stroke:#ff0000;stroke-linecap:square;stroke-width:1.5;"/>
    <defs>
     <path d="M 0 3 
C 0.795609 3 1.55874 2.683901 2.12132 2.12132 
C 2.683901 1.55874 3 0.795609 3 0 
C 3 -0.795609 2.683901 -1.55874 2.12132 -2.12132 
C 1.55874 -2.683901 0.795609 -3 0 -3 
C -0.795609 -3 -1.55874 -2.683901 -2.12132 -2.12132 
C -2.683901 -1.55874 -3 -0.795609 -3 0 
C -3 0.795609 -2.683901 1.55874 -2.12132 2.12132 
C -1.55874 2.683901 -0.795609 3 0 3 
z
" id="mbd661e12e8" style="stroke:#ff0000;"/>
    </defs>
    <g clip-path="url(#p1e2e49072a)">
     <use style="fill:#ff0000;stroke:#ff0000;" x="144" xlink:href="#mbd661e12e8" y="638.634375"/>
     <use style="fill:#ff0000;stroke:#ff0000;" x="162.377425" xlink:href="#mbd661e12e8" y="534.684375"/>
     <use style="fill:#ff0000;stroke:#ff0000;" x="180.75485" xlink:href="#mbd661e12e8" y="452.390625"/>
     <use style="fill:#ff0000;stroke:#ff0000;" x="199.132275" xlink:href="#mbd661e12e8" y="383.090625"/>
     <use style="fill:#ff0000;stroke:#ff0000;" x="217.509701" xlink:href="#mbd661e12e8" y="331.115625"/>
     <use style="fill:#ff0000;stroke:#ff0000;" x="235.887126" xlink:href="#mbd661e12e8" y="287.803125"/>
     <use style="fill:#ff0000;stroke:#ff0000;" x="254.264551" xlink:href="#mbd661e12e8" y="253.153125"/>
     <use style="fill:#ff0000;stroke:#ff0000;" x="272.641976" xlink:href="#mbd661e12e8" y="222.834375"/>
     <use style="fill:#ff0000;stroke:#ff0000;" x="291.019401" xlink:href="#mbd661e12e8" y="201.178125"/>
     <use style="fill:#ff0000;stroke:#ff0000;" x="309.396826" xlink:href="#mbd661e12e8" y="183.853125"/>
     <use style="fill:#ff0000;stroke:#ff0000;" x="327.774252" xlink:href="#mbd661e12e8" y="166.528125"/>
     <use style="fill:#ff0000;stroke:#ff0000;" x="346.151677" xlink:href="#mbd661e12e8" y="153.534375"/>
     <use style="fill:#ff0000;stroke:#ff0000;" x="364.529102" xlink:href="#mbd661e12e8" y="144.871875"/>
     <use style="fill:#ff0000;stroke:#ff0000;" x="382.906527" xlink:href="#mbd661e12e8" y="136.209375"/>
     <use style="fill:#ff0000;stroke:#ff0000;" x="401.283952" xlink:href="#mbd661e12e8" y="127.546875"/>
     <use style="fill:#ff0000;stroke:#ff0000;" x="419.661377" xlink:href="#mbd661e12e8" y="123.215625"/>
     <use style="fill:#ff0000;stroke:#ff0000;" x="438.038802" xlink:href="#mbd661e12e8" y="118.884375"/>
     <use style="fill:#ff0000;stroke:#ff0000;" x="456.416228" xlink:href="#mbd661e12e8" y="114.553125"/>
     <use style="fill:#ff0000;stroke:#ff0000;" x="474.793653" xlink:href="#mbd661e12e8" y="114.553125"/>
     <use style="fill:#ff0000;stroke:#ff0000;" x="493.171078" xlink:href="#mbd661e12e8" y="110.221875"/>
     <use style="fill:#ff0000;stroke:#ff0000;" x="511.548503" xlink:href="#mbd661e12e8" y="183.853125"/>
     <use style="fill:#ff0000;stroke:#ff0000;" x="529.925928" xlink:href="#mbd661e12e8" y="257.484375"/>
     <use style="fill:#ff0000;stroke:#ff0000;" x="548.303353" xlink:href="#mbd661e12e8" y="322.453125"/>
     <use style="fill:#ff0000;stroke:#ff0000;" x="566.680779" xlink:href="#mbd661e12e8" y="370.096875"/>
     <use style="fill:#ff0000;stroke:#ff0000;" x="585.058204" xlink:href="#mbd661e12e8" y="413.409375"/>
     <use style="fill:#ff0000;stroke:#ff0000;" x="603.435629" xlink:href="#mbd661e12e8" y="448.059375"/>
     <use style="fill:#ff0000;stroke:#ff0000;" x="621.813054" xlink:href="#mbd661e12e8" y="478.378125"/>
     <use style="fill:#ff0000;stroke:#ff0000;" x="640.190479" xlink:href="#mbd661e12e8" y="504.365625"/>
     <use style="fill:#ff0000;stroke:#ff0000;" x="658.567904" xlink:href="#mbd661e12e8" y="526.021875"/>
     <use style="fill:#ff0000;stroke:#ff0000;" x="676.945329" xlink:href="#mbd661e12e8" y="543.346875"/>
     <use style="fill:#ff0000;stroke:#ff0000;" x="695.322755" xlink:href="#mbd661e12e8" y="560.671875"/>
     <use style="fill:#ff0000;stroke:#ff0000;" x="713.70018" xlink:href="#mbd661e12e8" y="573.665625"/>
     <use style="fill:#ff0000;stroke:#ff0000;" x="732.077605" xlink:href="#mbd661e12e8" y="586.659375"/>
     <use style="fill:#ff0000;stroke:#ff0000;" x="750.45503" xlink:href="#mbd661e12e8" y="590.990625"/>
     <use style="fill:#ff0000;stroke:#ff0000;" x="768.832455" xlink:href="#mbd661e12e8" y="599.653125"/>
     <use style="fill:#ff0000;stroke:#ff0000;" x="787.20988" xlink:href="#mbd661e12e8" y="608.315625"/>
     <use style="fill:#ff0000;stroke:#ff0000;" x="805.587305" xlink:href="#mbd661e12e8" y="612.646875"/>
     <use style="fill:#ff0000;stroke:#ff0000;" x="823.964731" xlink:href="#mbd661e12e8" y="616.978125"/>
     <use style="fill:#ff0000;stroke:#ff0000;" x="842.342156" xlink:href="#mbd661e12e8" y="621.309375"/>
     <use style="fill:#ff0000;stroke:#ff0000;" x="860.719581" xlink:href="#mbd661e12e8" y="625.640625"/>
     <use style="fill:#ff0000;stroke:#ff0000;" x="879.097006" xlink:href="#mbd661e12e8" y="625.640625"/>
     <use style="fill:#ff0000;stroke:#ff0000;" x="897.474431" xlink:href="#mbd661e12e8" y="629.971875"/>
     <use style="fill:#ff0000;stroke:#ff0000;" x="915.851856" xlink:href="#mbd661e12e8" y="634.303125"/>
     <use style="fill:#ff0000;stroke:#ff0000;" x="934.229282" xlink:href="#mbd661e12e8" y="634.303125"/>
     <use style="fill:#ff0000;stroke:#ff0000;" x="952.606707" xlink:href="#mbd661e12e8" y="634.303125"/>
    </g>
   </g>
   <g id="patch_3">
    <path d="M 144 640.8 
L 144 86.4 
" style="fill:none;stroke:#000000;stroke-linecap:square;stroke-linejoin:miter;stroke-width:0.8;"/>
   </g>
   <g id="patch_4">
    <path d="M 1036.8 640.8 
L 1036.8 86.4 
" style="fill:none;stroke:#000000;stroke-linecap:square;stroke-linejoin:miter;stroke-width:0.8;"/>
   </g>
   <g id="patch_5">
    <path d="M 144 640.8 
L 1036.8 640.8 
" style="fill:none;stroke:#000000;stroke-linecap:square;stroke-linejoin:miter;stroke-width:0.8;"/>
   </g>
   <g id="patch_6">
    <path d="M 144 86.4 
L 1036.8 86.4 
" style="fill:none;stroke:#000000;stroke-linecap:square;stroke-linejoin:miter;stroke-width:0.8;"/>
   </g>
   <g id="text_17">
    <!-- Charging time =5.1322s -->
    <g transform="translate(391.543917 304.8)scale(0.1 -0.1)">
     <defs>
      <path d="M 4122 4306 
L 4122 3641 
Q 3803 3938 3442 4084 
Q 3081 4231 2675 4231 
Q 1875 4231 1450 3742 
Q 1025 3253 1025 2328 
Q 1025 1406 1450 917 
Q 1875 428 2675 428 
Q 3081 428 3442 575 
Q 3803 722 4122 1019 
L 4122 359 
Q 3791 134 3420 21 
Q 3050 -91 2638 -91 
Q 1578 -91 968 557 
Q 359 1206 359 2328 
Q 359 3453 968 4101 
Q 1578 4750 2638 4750 
Q 3056 4750 3426 4639 
Q 3797 4528 4122 4306 
z
" id="DejaVuSans-43" transform="scale(0.015625)"/>
      <path d="M 3513 2113 
L 3513 0 
L 2938 0 
L 2938 2094 
Q 2938 2591 2744 2837 
Q 2550 3084 2163 3084 
Q 1697 3084 1428 2787 
Q 1159 2491 1159 1978 
L 1159 0 
L 581 0 
L 581 4863 
L 1159 4863 
L 1159 2956 
Q 1366 3272 1645 3428 
Q 1925 3584 2291 3584 
Q 2894 3584 3203 3211 
Q 3513 2838 3513 2113 
z
" id="DejaVuSans-68" transform="scale(0.015625)"/>
      <path d="M 2631 2963 
Q 2534 3019 2420 3045 
Q 2306 3072 2169 3072 
Q 1681 3072 1420 2755 
Q 1159 2438 1159 1844 
L 1159 0 
L 581 0 
L 581 3500 
L 1159 3500 
L 1159 2956 
Q 1341 3275 1631 3429 
Q 1922 3584 2338 3584 
Q 2397 3584 2469 3576 
Q 2541 3569 2628 3553 
L 2631 2963 
z
" id="DejaVuSans-72" transform="scale(0.015625)"/>
      <path d="M 3513 2113 
L 3513 0 
L 2938 0 
L 2938 2094 
Q 2938 2591 2744 2837 
Q 2550 3084 2163 3084 
Q 1697 3084 1428 2787 
Q 1159 2491 1159 1978 
L 1159 0 
L 581 0 
L 581 3500 
L 1159 3500 
L 1159 2956 
Q 1366 3272 1645 3428 
Q 1925 3584 2291 3584 
Q 2894 3584 3203 3211 
Q 3513 2838 3513 2113 
z
" id="DejaVuSans-6e" transform="scale(0.015625)"/>
      <path d="M 678 2906 
L 4684 2906 
L 4684 2381 
L 678 2381 
L 678 2906 
z
M 678 1631 
L 4684 1631 
L 4684 1100 
L 678 1100 
L 678 1631 
z
" id="DejaVuSans-3d" transform="scale(0.015625)"/>
     </defs>
     <use xlink:href="#DejaVuSans-43"/>
     <use x="69.824219" xlink:href="#DejaVuSans-68"/>
     <use x="133.203125" xlink:href="#DejaVuSans-61"/>
     <use x="194.482422" xlink:href="#DejaVuSans-72"/>
     <use x="233.845703" xlink:href="#DejaVuSans-67"/>
     <use x="297.322266" xlink:href="#DejaVuSans-69"/>
     <use x="325.105469" xlink:href="#DejaVuSans-6e"/>
     <use x="388.484375" xlink:href="#DejaVuSans-67"/>
     <use x="451.960938" xlink:href="#DejaVuSans-20"/>
     <use x="483.748047" xlink:href="#DejaVuSans-74"/>
     <use x="522.957031" xlink:href="#DejaVuSans-69"/>
     <use x="550.740234" xlink:href="#DejaVuSans-6d"/>
     <use x="648.152344" xlink:href="#DejaVuSans-65"/>
     <use x="709.675781" xlink:href="#DejaVuSans-20"/>
     <use x="741.462891" xlink:href="#DejaVuSans-3d"/>
     <use x="825.251953" xlink:href="#DejaVuSans-35"/>
     <use x="888.875" xlink:href="#DejaVuSans-2e"/>
     <use x="920.662109" xlink:href="#DejaVuSans-31"/>
     <use x="984.285156" xlink:href="#DejaVuSans-33"/>
     <use x="1047.908203" xlink:href="#DejaVuSans-32"/>
     <use x="1111.53125" xlink:href="#DejaVuSans-32"/>
     <use x="1175.154297" xlink:href="#DejaVuSans-73"/>
    </g>
   </g>
   <g id="text_18">
    <!-- Discharge time =6.901s -->
    <g transform="translate(391.543917 388.8)scale(0.1 -0.1)">
     <defs>
      <path d="M 1259 4147 
L 1259 519 
L 2022 519 
Q 2988 519 3436 956 
Q 3884 1394 3884 2338 
Q 3884 3275 3436 3711 
Q 2988 4147 2022 4147 
L 1259 4147 
z
M 628 4666 
L 1925 4666 
Q 3281 4666 3915 4102 
Q 4550 3538 4550 2338 
Q 4550 1131 3912 565 
Q 3275 0 1925 0 
L 628 0 
L 628 4666 
z
" id="DejaVuSans-44" transform="scale(0.015625)"/>
      <path d="M 3122 3366 
L 3122 2828 
Q 2878 2963 2633 3030 
Q 2388 3097 2138 3097 
Q 1578 3097 1268 2742 
Q 959 2388 959 1747 
Q 959 1106 1268 751 
Q 1578 397 2138 397 
Q 2388 397 2633 464 
Q 2878 531 3122 666 
L 3122 134 
Q 2881 22 2623 -34 
Q 2366 -91 2075 -91 
Q 1284 -91 818 406 
Q 353 903 353 1747 
Q 353 2603 823 3093 
Q 1294 3584 2113 3584 
Q 2378 3584 2631 3529 
Q 2884 3475 3122 3366 
z
" id="DejaVuSans-63" transform="scale(0.015625)"/>
      <path d="M 703 97 
L 703 672 
Q 941 559 1184 500 
Q 1428 441 1663 441 
Q 2288 441 2617 861 
Q 2947 1281 2994 2138 
Q 2813 1869 2534 1725 
Q 2256 1581 1919 1581 
Q 1219 1581 811 2004 
Q 403 2428 403 3163 
Q 403 3881 828 4315 
Q 1253 4750 1959 4750 
Q 2769 4750 3195 4129 
Q 3622 3509 3622 2328 
Q 3622 1225 3098 567 
Q 2575 -91 1691 -91 
Q 1453 -91 1209 -44 
Q 966 3 703 97 
z
M 1959 2075 
Q 2384 2075 2632 2365 
Q 2881 2656 2881 3163 
Q 2881 3666 2632 3958 
Q 2384 4250 1959 4250 
Q 1534 4250 1286 3958 
Q 1038 3666 1038 3163 
Q 1038 2656 1286 2365 
Q 1534 2075 1959 2075 
z
" id="DejaVuSans-39" transform="scale(0.015625)"/>
     </defs>
     <use xlink:href="#DejaVuSans-44"/>
     <use x="77.001953" xlink:href="#DejaVuSans-69"/>
     <use x="104.785156" xlink:href="#DejaVuSans-73"/>
     <use x="156.884766" xlink:href="#DejaVuSans-63"/>
     <use x="211.865234" xlink:href="#DejaVuSans-68"/>
     <use x="275.244141" xlink:href="#DejaVuSans-61"/>
     <use x="336.523438" xlink:href="#DejaVuSans-72"/>
     <use x="375.886719" xlink:href="#DejaVuSans-67"/>
     <use x="439.363281" xlink:href="#DejaVuSans-65"/>
     <use x="500.886719" xlink:href="#DejaVuSans-20"/>
     <use x="532.673828" xlink:href="#DejaVuSans-74"/>
     <use x="571.882812" xlink:href="#DejaVuSans-69"/>
     <use x="599.666016" xlink:href="#DejaVuSans-6d"/>
     <use x="697.078125" xlink:href="#DejaVuSans-65"/>
     <use x="758.601562" xlink:href="#DejaVuSans-20"/>
     <use x="790.388672" xlink:href="#DejaVuSans-3d"/>
     <use x="874.177734" xlink:href="#DejaVuSans-36"/>
     <use x="937.800781" xlink:href="#DejaVuSans-2e"/>
     <use x="969.587891" xlink:href="#DejaVuSans-39"/>
     <use x="1033.210938" xlink:href="#DejaVuSans-30"/>
     <use x="1096.833984" xlink:href="#DejaVuSans-31"/>
     <use x="1160.457031" xlink:href="#DejaVuSans-73"/>
    </g>
   </g>
   <g id="text_19">
    <!-- Capacitor charge/discharge graph -->
    <g transform="translate(445.771172 80.4)scale(0.17 -0.17)">
     <defs>
      <path d="M 1159 525 
L 1159 -1331 
L 581 -1331 
L 581 3500 
L 1159 3500 
L 1159 2969 
Q 1341 3281 1617 3432 
Q 1894 3584 2278 3584 
Q 2916 3584 3314 3078 
Q 3713 2572 3713 1747 
Q 3713 922 3314 415 
Q 2916 -91 2278 -91 
Q 1894 -91 1617 61 
Q 1341 213 1159 525 
z
M 3116 1747 
Q 3116 2381 2855 2742 
Q 2594 3103 2138 3103 
Q 1681 3103 1420 2742 
Q 1159 2381 1159 1747 
Q 1159 1113 1420 752 
Q 1681 391 2138 391 
Q 2594 391 2855 752 
Q 3116 1113 3116 1747 
z
" id="DejaVuSans-70" transform="scale(0.015625)"/>
      <path d="M 1625 4666 
L 2156 4666 
L 531 -594 
L 0 -594 
L 1625 4666 
z
" id="DejaVuSans-2f" transform="scale(0.015625)"/>
      <path d="M 2906 2969 
L 2906 4863 
L 3481 4863 
L 3481 0 
L 2906 0 
L 2906 525 
Q 2725 213 2448 61 
Q 2172 -91 1784 -91 
Q 1150 -91 751 415 
Q 353 922 353 1747 
Q 353 2572 751 3078 
Q 1150 3584 1784 3584 
Q 2172 3584 2448 3432 
Q 2725 3281 2906 2969 
z
M 947 1747 
Q 947 1113 1208 752 
Q 1469 391 1925 391 
Q 2381 391 2643 752 
Q 2906 1113 2906 1747 
Q 2906 2381 2643 2742 
Q 2381 3103 1925 3103 
Q 1469 3103 1208 2742 
Q 947 2381 947 1747 
z
" id="DejaVuSans-64" transform="scale(0.015625)"/>
     </defs>
     <use xlink:href="#DejaVuSans-43"/>
     <use x="69.824219" xlink:href="#DejaVuSans-61"/>
     <use x="131.103516" xlink:href="#DejaVuSans-70"/>
     <use x="194.580078" xlink:href="#DejaVuSans-61"/>
     <use x="255.859375" xlink:href="#DejaVuSans-63"/>
     <use x="310.839844" xlink:href="#DejaVuSans-69"/>
     <use x="338.623047" xlink:href="#DejaVuSans-74"/>
     <use x="377.832031" xlink:href="#DejaVuSans-6f"/>
     <use x="439.013672" xlink:href="#DejaVuSans-72"/>
     <use x="480.126953" xlink:href="#DejaVuSans-20"/>
     <use x="511.914062" xlink:href="#DejaVuSans-63"/>
     <use x="566.894531" xlink:href="#DejaVuSans-68"/>
     <use x="630.273438" xlink:href="#DejaVuSans-61"/>
     <use x="691.552734" xlink:href="#DejaVuSans-72"/>
     <use x="730.916016" xlink:href="#DejaVuSans-67"/>
     <use x="794.392578" xlink:href="#DejaVuSans-65"/>
     <use x="855.916016" xlink:href="#DejaVuSans-2f"/>
     <use x="889.607422" xlink:href="#DejaVuSans-64"/>
     <use x="953.083984" xlink:href="#DejaVuSans-69"/>
     <use x="980.867188" xlink:href="#DejaVuSans-73"/>
     <use x="1032.966797" xlink:href="#DejaVuSans-63"/>
     <use x="1087.947266" xlink:href="#DejaVuSans-68"/>
     <use x="1151.326172" xlink:href="#DejaVuSans-61"/>
     <use x="1212.605469" xlink:href="#DejaVuSans-72"/>
     <use x="1251.96875" xlink:href="#DejaVuSans-67"/>
     <use x="1315.445312" xlink:href="#DejaVuSans-65"/>
     <use x="1376.96875" xlink:href="#DejaVuSans-20"/>
     <use x="1408.755859" xlink:href="#DejaVuSans-67"/>
     <use x="1472.232422" xlink:href="#DejaVuSans-72"/>
     <use x="1513.345703" xlink:href="#DejaVuSans-61"/>
     <use x="1574.625" xlink:href="#DejaVuSans-70"/>
     <use x="1638.101562" xlink:href="#DejaVuSans-68"/>
    </g>
   </g>
   <g id="legend_1">
    <g id="patch_7">
     <path d="M 979.235937 109.078125 
L 1029.8 109.078125 
Q 1031.8 109.078125 1031.8 107.078125 
L 1031.8 93.4 
Q 1031.8 91.4 1029.8 91.4 
L 979.235937 91.4 
Q 977.235937 91.4 977.235937 93.4 
L 977.235937 107.078125 
Q 977.235937 109.078125 979.235937 109.078125 
z
" style="fill:#ffffff;opacity:0.8;stroke:#cccccc;stroke-linejoin:miter;"/>
    </g>
    <g id="line2d_122">
     <path d="M 981.235937 99.498438 
L 1001.235937 99.498438 
" style="fill:none;stroke:#ff0000;stroke-linecap:square;stroke-width:1.5;"/>
    </g>
    <g id="line2d_123">
     <g>
      <use style="fill:#ff0000;stroke:#ff0000;" x="991.235937" xlink:href="#mbd661e12e8" y="99.498438"/>
     </g>
    </g>
    <g id="text_20">
     <!-- V(t) -->
     <g transform="translate(1009.235937 102.998438)scale(0.1 -0.1)">
      <defs>
       <path d="M 1984 4856 
Q 1566 4138 1362 3434 
Q 1159 2731 1159 2009 
Q 1159 1288 1364 580 
Q 1569 -128 1984 -844 
L 1484 -844 
Q 1016 -109 783 600 
Q 550 1309 550 2009 
Q 550 2706 781 3412 
Q 1013 4119 1484 4856 
L 1984 4856 
z
" id="DejaVuSans-28" transform="scale(0.015625)"/>
       <path d="M 513 4856 
L 1013 4856 
Q 1481 4119 1714 3412 
Q 1947 2706 1947 2009 
Q 1947 1309 1714 600 
Q 1481 -109 1013 -844 
L 513 -844 
Q 928 -128 1133 580 
Q 1338 1288 1338 2009 
Q 1338 2731 1133 3434 
Q 928 4138 513 4856 
z
" id="DejaVuSans-29" transform="scale(0.015625)"/>
      </defs>
      <use xlink:href="#DejaVuSans-56"/>
      <use x="68.408203" xlink:href="#DejaVuSans-28"/>
      <use x="107.421875" xlink:href="#DejaVuSans-74"/>
      <use x="146.630859" xlink:href="#DejaVuSans-29"/>
     </g>
    </g>
   </g>
  </g>
 </g>
 <defs>
  <clipPath id="p1e2e49072a">
   <rect height="554.4" width="892.8" x="144" y="86.4"/>
  </clipPath>
 </defs>
</svg>
